<svg xmlns="http://www.w3.org/2000/svg" viewBox="0 0 74.48 92.41"><defs><style>.cls-1{fill:#003928;}.cls-1,.cls-2{stroke:#2bb673;stroke-miterlimit:10;}.cls-2{fill:none;}.cls-3{fill:#2bb673;}</style></defs><g id="Layer_2" data-name="Layer 2"><g id="Layer_1-2" data-name="Layer 1"><polygon class="cls-1" points="73.93 91.91 0.54 91.91 5.66 25.72 67.29 24.96 73.93 91.91"/><path class="cls-2" d="M51.58,35.2C51.58,16,45,.5,37,.5,29.21.5,23,15.94,23,35"/><circle class="cls-3" cx="22.95" cy="42.44" r="7.43"/><circle class="cls-3" cx="51.58" cy="42.63" r="7.43"/><g id="easy"><path class="cls-3" d="M28.37,60.11a4.46,4.46,0,0,0,.14-.71h.13a3.32,3.32,0,0,1,.63,1.38c.21,1.66-1.48,2.53-3.19,2.53-2.53,0-3.7-.93-3.7-2.23s.66-2.16,3.09-2.69a4.05,4.05,0,0,1-.48,0c-1.58,0-2.21-.9-2.21-1.92a3.1,3.1,0,0,1,2.69-3.06,4.87,4.87,0,0,1,.87-.07c1.09,0,2,.31,2,1.35a1.5,1.5,0,0,1-1.64,1.52,1.83,1.83,0,0,1-.88-.22v-.16a1.7,1.7,0,0,0,.94-1.24c0-.45-.14-.56-.5-.56a.7.7,0,0,0-.4.16,3.34,3.34,0,0,0-.77,2.26c0,.83.45,1.23,1,1.23A2.27,2.27,0,0,0,27.68,57h.08c.15,0,.21.22.21.36,0,.68-.5,1-1.63,1.12a3.07,3.07,0,0,0-1.46,2.39c0,1.12.48,1.57,1.3,1.57S28,61.72,28.37,60.11Z"/><path class="cls-3" d="M37.84,60,38,59.4l.36.1L38.2,60C37.41,62.72,36.79,64,35.57,64c-1.49,0-1.7-1.89-1.7-3v-.16c-.38,1.15-.89,2.4-2.09,2.4S29.9,62,29.9,60.83a4.32,4.32,0,0,1,4.45-4.08c.68,0,1.83.14,1.83.73a.53.53,0,0,1-.19.45,2.54,2.54,0,0,0-1.17-.3c-2.11,0-2.74,2.57-2.74,3.79,0,.51.11.94.38.94.82,0,1.57-4,1.73-4.33a1.73,1.73,0,0,1,.66-.13c.66,0,1.31.25,1.31,1.15,0,.58-.25,1.7-.25,2.9,0,.56,0,1.28.36,1.28S37.36,61.6,37.84,60Z"/><path class="cls-3" d="M41.12,61.08a2.31,2.31,0,0,1,.08.61c0,1.67-1.31,3.56-2.67,3.56a.82.82,0,0,1-.9-.88c0-.85.75-1.46,1.54-2.15,0-1.23-1.54-1.44-1.54-3a2.5,2.5,0,0,1,2.64-2.47c.92,0,1.36.37,1.36.94s-.64,1.25-1.92,1.25a2.83,2.83,0,0,0,.53-1.29c0-.26-.13-.32-.24-.32-.27,0-.61.35-.61,1,0,1.12,1.11,1.39,1.59,2.4a13.86,13.86,0,0,1,2-1.28l.13.4A10.59,10.59,0,0,0,41.12,61.08Zm-2,1.72a2.49,2.49,0,0,0-1,1.45.37.37,0,0,0,.35.42C38.82,64.67,39.1,64.3,39.15,62.8Z"/><path class="cls-3" d="M45,58.51c0,.61-.13,1.69-.16,2.48s.1,1.9.45,1.9,1-1.18,1.15-5.09a1.81,1.81,0,0,1,.11-.62,7.74,7.74,0,0,1,1.2-.1c.74,0,.88.23.88.93s-.25,2.74-.29,3.38l0,1.23-.08.82c-.05,1.52-1.1,3.9-2.7,3.9a.88.88,0,0,1-.95-1c0-1,1.08-1.52,1.76-2.26v-.48c0-.5,0-1,0-1.49-.47,1-.85,1.58-1.73,1.58-1.06,0-2-1-1.91-2.64,0-.76.27-1.93.29-2.73,0-.56-.08-1-.08-1.27A1.67,1.67,0,0,1,43.5,57C44.82,57,45,57.55,45,58.51Zm.53,8.26c.61,0,.78-1,.8-2-.53.48-1.16,1-1.17,1.57C45.15,66.62,45.3,66.77,45.54,66.77Z"/></g><g id="groceries"><path class="cls-3" d="M14.64,77.37a2.43,2.43,0,0,1-1.51.6c-2.35,0-3.37-1.87-3.37-4.17,0-3.86,2.41-5.81,5-5.81,1.57,0,2.3.67,2.3,1.77a2.06,2.06,0,0,1-2.28,2,2.71,2.71,0,0,1-1-.19v-.13c.78.13,1.33-1.34,1.33-2.09,0-.5-.15-.71-.47-.71-1.49,0-2.43,1.62-2.43,5,0,2,.29,3.79,1.13,3.79a1.71,1.71,0,0,0,1.29-.62l.08-3.24a1,1,0,0,1,.76-.22c.61,0,1.46.16,1.46.66l-.14,2.94c-.15,2.79-1.32,4.72-2.93,4.72a.89.89,0,0,1-1-1c0-.93,1-1.41,1.69-2.1Zm-.75,3.68c.59,0,.73-.91.73-1.89-.52.42-1.13.85-1.13,1.39C13.49,80.89,13.65,81.05,13.89,81.05Z"/><path class="cls-3" d="M20.06,74.6l0,0c.38-1.43.83-3.16,2.38-3.16a1.14,1.14,0,0,1,1.24,1.3,1.88,1.88,0,0,1-1.85,2,1.28,1.28,0,0,1-.75-.19,3.45,3.45,0,0,0,.8-2c0-.21-.08-.24-.16-.24-1,0-1.71,4.71-2,5.44h0a3.92,3.92,0,0,1-.7.07c-1.08,0-1.28-.45-1.28-1.12s.25-4,.22-5a3.29,3.29,0,0,1,.93-.12c.53,0,1.23.13,1.23,1.19,0,.32-.06,1.23-.06,1.79C20.08,74.53,20.06,74.57,20.06,74.6Z"/><path class="cls-3" d="M26.64,75.56c0,1.1.32,2,.83,2s.86-.45,1.12-1.58a2.13,2.13,0,0,1-1.49-2.17c0-1,.47-1.68,1.2-1.68.53,0,1.52.45,1.52,2.34a5.83,5.83,0,0,1-.14,1.33c.9,0,1.5-.85,1.94-1.7l.25.18c-.51,1-1.18,1.84-2.27,1.86A2.43,2.43,0,0,1,27.18,78a2.85,2.85,0,0,1-2.93-2.85,3.76,3.76,0,0,1,3.7-4c.5,0,1.28,0,1.28.56a.44.44,0,0,1-.21.4,1.75,1.75,0,0,0-.94-.3C27.2,71.8,26.64,73.17,26.64,75.56Zm2.05-.27c0-.34.06-.71.06-1.14,0-1.22-.21-1.57-.37-1.57s-.25.34-.25.93A2.5,2.5,0,0,0,28.69,75.29Z"/><path class="cls-3" d="M35.39,72.56c0-.3-.08-.67-.43-.67-.75,0-1.39,1.65-1.39,3.3,0,1.23.62,1.79,1.45,1.79A3.42,3.42,0,0,0,38,75.11l.37-.66.33.18-.37.64a4.49,4.49,0,0,1-4,2.46,2.73,2.73,0,0,1-3-2.77,3.65,3.65,0,0,1,3.76-3.68c1.57,0,2,.8,2,1.36s-.48,1.24-1.73,1.24a2.14,2.14,0,0,1-.67-.1A1.44,1.44,0,0,0,35.39,72.56Z"/><path class="cls-3" d="M40.25,75.24c.07,1,.4,1.87,1.28,1.87s1.59-.8,2.23-1.74l.64-1,.34.17-.68,1c-.73,1.07-1.63,2.3-3.28,2.3a2.8,2.8,0,0,1-2.78-3,3.3,3.3,0,0,1,3.34-3.53c1.2,0,2.07.48,2.07,1.38,0,1.14-1.41,1.76-2.87,2.43Zm0-.5.3-.14a2.31,2.31,0,0,0,1.36-2c0-.4-.14-.58-.37-.58C41,72,40.25,73,40.24,74.74Z"/><path class="cls-3" d="M46.16,74.6v0c.39-1.43.84-3.16,2.39-3.16a1.13,1.13,0,0,1,1.23,1.3,1.88,1.88,0,0,1-1.84,2,1.24,1.24,0,0,1-.75-.19,3.45,3.45,0,0,0,.8-2c0-.21-.08-.24-.16-.24-1,0-1.71,4.71-2,5.44h0a3.94,3.94,0,0,1-.71.07c-1.07,0-1.28-.45-1.28-1.12s.26-4,.23-5a3.23,3.23,0,0,1,.92-.12c.53,0,1.24.13,1.24,1.19,0,.32-.07,1.23-.07,1.79C46.17,74.53,46.16,74.57,46.16,74.6Z"/><path class="cls-3" d="M54.35,74.5l.08-.32h.37l-.11.39c-.87,3-1.51,3.93-2.6,3.93-1.52,0-1.71-1.9-1.71-2.93a32.72,32.72,0,0,1,.4-4.14,2.17,2.17,0,0,1,.69-.1c.77,0,1.28.21,1.28,1.06s-.35,2.94-.35,4.16c0,.51.06,1.23.37,1.23S54,76.12,54.35,74.5Zm-2.61-6.16a1.43,1.43,0,0,1,1.41,1.41c0,.69-.54.89-1.09.89a1.28,1.28,0,0,1-1.41-1.28A1,1,0,0,1,51.74,68.34Z"/><path class="cls-3" d="M56.29,75.24c.06,1,.4,1.87,1.28,1.87s1.58-.8,2.22-1.74l.64-1,.34.17-.67,1c-.74,1.07-1.64,2.3-3.29,2.3a2.8,2.8,0,0,1-2.78-3,3.3,3.3,0,0,1,3.34-3.53c1.2,0,2.07.48,2.07,1.38,0,1.14-1.41,1.76-2.87,2.43Zm0-.5.3-.14a2.31,2.31,0,0,0,1.36-2c0-.4-.14-.58-.36-.58C57,72,56.29,73,56.27,74.74Z"/><path class="cls-3" d="M61.84,77.59C61.84,76,60,75.65,60,73.83a2.52,2.52,0,0,1,2.55-2.55c.83,0,1.18.39,1.18.85,0,.61-.56,1-1.65,1a1.83,1.83,0,0,0,.53-1c0-.21-.11-.24-.22-.24-.39,0-.79.34-.79,1,0,1.48,2,1.7,2,3.73a2.63,2.63,0,0,1-2.45,2.93,1.33,1.33,0,0,1-1.2-.62C60.88,78.85,61.84,78.36,61.84,77.59Z"/></g></g></g></svg>